<svg width="278" height="106" viewBox="0 0 278 106" fill="none" xmlns="http://www.w3.org/2000/svg">
<path d="M99.0379 49.0798V52.4949H63.4042C64.0221 55.9923 65.7109 58.842 68.4669 61.0475C71.2903 63.3243 74.4208 64.4626 77.8584 64.4626C80.195 64.4626 82.4343 63.9084 84.5837 62.8C86.6695 61.7628 88.4182 60.2911 89.8262 58.3814H97.1956C95.4768 62.2458 92.9005 65.2864 89.4667 67.5033C85.9617 69.7725 82.4306 70.9034 78.8769 70.9034C75.2521 70.9034 72.1816 70.3492 69.6652 69.2408C67.0889 68.1436 64.8459 66.642 62.9399 64.7322C58.7759 60.6881 56.6938 55.7227 56.6938 49.8287C56.6938 43.9983 58.7759 38.9955 62.9399 34.8203C67.0514 30.7087 72.0243 28.6492 77.8584 28.6492C83.509 28.6492 88.4519 30.6413 92.687 34.6256C96.9185 38.681 99.0379 43.5003 99.0379 49.0798ZM92.2227 46.9678C91.4813 43.534 89.7663 40.6769 87.0701 38.4001C84.3628 36.1946 81.2922 35.0899 77.8584 35.0899C72.586 35.0899 68.4407 37.4528 65.4263 42.1747C64.5051 43.6538 63.861 45.2528 63.4941 46.9678H92.2227Z" fill="white"/>
<path d="M116.064 24.1404V70.259H109.623V3.69482L144.792 53.6929V7.66411H151.233V74.1235L116.064 24.1404Z" fill="white"/>
<path d="M204.632 49.0798V52.4949H168.998C169.616 55.9923 171.305 58.842 174.061 61.0475C176.885 63.3243 180.015 64.4626 183.453 64.4626C185.789 64.4626 188.029 63.9084 190.178 62.8C192.264 61.7628 194.012 60.2911 195.42 58.3814H202.79C201.071 62.2458 198.495 65.2864 195.061 67.5033C191.556 69.7725 188.025 70.9034 184.471 70.9034C180.846 70.9034 177.776 70.3492 175.259 69.2408C172.683 68.1436 170.44 66.642 168.534 64.7322C164.37 60.6881 162.288 55.7227 162.288 49.8287C162.288 43.9983 164.37 38.9955 168.534 34.8203C172.646 30.7087 177.619 28.6492 183.453 28.6492C189.103 28.6492 194.046 30.6413 198.281 34.6256C202.513 38.681 204.632 43.5003 204.632 49.0798ZM197.817 46.9678C197.076 43.534 195.36 40.6769 192.664 38.4001C189.957 36.1946 186.886 35.0899 183.453 35.0899C178.18 35.0899 174.035 37.4528 171.021 42.1747C170.099 43.6538 169.455 45.2528 169.088 46.9678H197.817Z" fill="white"/>
<path d="M239.063 70.2585L228.938 54.5162L218.812 70.2585H210.619L224.789 49.9178L210.619 29.7568H218.812L228.938 45.3045L239.063 29.7568H247.256L233.072 50.0077L247.256 70.2585H239.063Z" fill="white"/>
<path d="M251.398 35.7336V29.7572H261.524V14.0149H267.965V29.7572H278V35.7336H267.965V70.259H261.524V35.7336H251.398Z" fill="white"/>
<path d="M171.175 94.7491C166.592 93.6931 164.3 91.7309 164.3 88.8626C164.3 86.7581 165.038 85.1741 166.517 84.1144C167.992 83.0771 169.722 82.5566 171.7 82.5566C176.081 82.5566 178.679 84.1855 179.488 87.4396H176.987C176.545 85.5036 174.785 84.5338 171.7 84.5338C169.543 84.5338 168.034 85.1741 167.176 86.451C166.846 86.9416 166.682 87.552 166.682 88.2784C166.682 89.6564 167.431 90.7199 168.928 91.4688C169.636 91.8508 171.134 92.3338 173.422 92.9217C175.706 93.5209 177.369 94.1874 178.41 94.9139C179.837 95.9249 180.552 97.3404 180.552 99.1677C180.552 101.437 179.657 103.152 177.871 104.32C176.373 105.29 174.523 105.773 172.329 105.773C167.356 105.773 164.472 103.882 163.686 100.096H166.412C166.832 102.474 168.801 103.661 172.329 103.661C174.834 103.661 176.582 102.969 177.571 101.579C177.968 101.033 178.17 100.284 178.17 99.3325C178.17 98.4038 177.803 97.6474 177.077 97.0558C176.047 96.217 174.081 95.4493 171.175 94.7491Z" fill="white"/>
<path d="M182.064 84.9681V82.8262H195.275V84.9681H189.823V105.279H187.517V84.9681H182.064Z" fill="white"/>
<path d="M214.653 97.9094C214.653 100.336 213.859 102.253 212.271 103.661C210.773 104.979 208.781 105.638 206.295 105.638C203.786 105.638 201.786 104.979 200.288 103.661C198.701 102.253 197.907 100.336 197.907 97.9094V82.886H200.228V98.2389C200.228 99.9389 200.843 101.235 202.071 102.133C203.127 102.935 204.535 103.332 206.295 103.332C209.051 103.332 210.897 102.403 211.837 100.546C212.166 99.9165 212.331 99.1488 212.331 98.2389V82.886H214.653V97.9094Z" fill="white"/>
<path d="M236.533 94.1198C236.533 95.7487 236.237 97.2428 235.649 98.5984C235.028 99.9876 234.2 101.175 233.163 102.163C232.133 103.163 230.916 103.938 229.508 104.485C228.1 105.054 226.591 105.339 224.985 105.339H219.098V82.886H224.985C226.591 82.886 228.1 83.1631 229.508 83.7098C230.916 84.2902 232.133 85.0728 233.163 86.0614C234.2 87.05 235.028 88.2295 235.649 89.5963C236.237 90.9856 236.533 92.4947 236.533 94.1198ZM234.286 94.1198C234.286 91.566 233.38 89.4278 231.575 87.709C229.815 86.0427 227.64 85.2076 225.045 85.2076H221.42V103.032H225.045C227.64 103.032 229.815 102.193 231.575 100.516C233.38 98.8006 234.286 96.6662 234.286 94.1198Z" fill="white"/>
<path d="M242.81 105.339H240.488V82.886H242.81V105.339Z" fill="white"/>
<path d="M267.522 94.045C267.522 91.5212 266.624 89.353 264.826 87.5444C263.018 85.7395 260.834 84.8333 258.281 84.8333C255.753 84.8333 253.585 85.7395 251.78 87.5444C249.971 89.353 249.069 91.5212 249.069 94.045C249.069 96.6026 249.971 98.7857 251.78 100.591C253.585 102.388 255.753 103.287 258.281 103.287C260.834 103.287 263.018 102.388 264.826 100.591C266.624 98.7857 267.522 96.6026 267.522 94.045ZM269.844 94.045C269.844 95.6327 269.544 97.1306 268.945 98.5386C268.335 99.9465 267.511 101.171 266.474 102.208C265.414 103.257 264.182 104.081 262.774 104.68C261.366 105.301 259.868 105.608 258.281 105.608C256.7 105.608 255.218 105.301 253.832 104.68C252.424 104.081 251.2 103.257 250.162 102.208C249.103 101.171 248.279 99.9465 247.691 98.5386C247.069 97.1306 246.762 95.6327 246.762 94.045C246.762 92.4686 247.069 90.9707 247.691 89.5515C248.279 88.1435 249.103 86.9265 250.162 85.8968C251.2 84.8595 252.424 84.0357 253.832 83.4253C255.218 82.8262 256.7 82.5266 258.281 82.5266C259.868 82.5266 261.366 82.8262 262.774 83.4253C264.182 84.0357 265.414 84.8595 266.474 85.8968C267.511 86.9265 268.335 88.1435 268.945 89.5515C269.544 90.9707 269.844 92.4686 269.844 94.045Z" fill="white"/>
<path d="M3.92061 1.95843V44.9653C3.92061 46.7215 4.02546 48.2755 4.24264 49.6273C4.4486 50.9192 4.77812 52.1886 5.23122 53.4281C6.78523 57.5584 9.29787 60.8275 12.7654 63.2315C16.2254 65.6355 20.1498 66.8376 24.5384 66.8376C27.433 66.8376 30.1816 66.3058 32.7878 65.2461C35.3004 64.2201 37.521 62.7709 39.442 60.8986C41.3592 59.0263 42.8421 56.8657 43.8906 54.4204C44.9728 51.8853 45.5157 49.2117 45.5157 46.3995C45.5345 43.5536 45.0027 40.8387 43.9243 38.2549C42.8833 35.7573 41.4042 33.548 39.4869 31.6195C37.5734 29.6948 35.3716 28.2044 32.8852 27.1484C30.3164 26.055 27.6203 25.512 24.8043 25.512C20.7489 25.512 17.1129 26.5418 13.8925 28.6051C10.6572 30.6796 8.13329 33.6079 6.32465 37.3862L2.59876 36.5437V1.95843H4.55719V3.91686H1.95843V1.95843H3.92061ZM0 0H6.51562V36.5437H4.55719L2.78973 35.6974C4.92042 31.245 7.91611 27.7813 11.7768 25.3061C15.6412 22.8271 19.985 21.5914 24.8043 21.5914C28.152 21.5914 31.3574 22.2392 34.4167 23.5386C37.375 24.7968 39.9924 26.568 42.2654 28.856C44.5459 31.1439 46.3021 33.7764 47.5416 36.7421C48.826 39.8239 49.4588 43.0406 49.4326 46.3995C49.4326 49.7472 48.7885 52.9338 47.4929 55.9595C46.2422 58.8877 44.471 61.4678 42.1793 63.7033C39.8913 65.9351 37.2551 67.6576 34.2669 68.8746C31.1851 70.1291 27.9423 70.7582 24.5384 70.7582C19.3297 70.7582 14.6602 69.324 10.5298 66.4519C6.39205 63.5835 3.40011 59.6891 1.55401 54.7762C1.01104 53.297 0.61786 51.788 0.370716 50.2452C0.123572 48.6874 0 46.9275 0 44.9653V0ZM24.8942 24.0104C27.8674 24.0104 30.7096 24.5909 33.4244 25.7554C36.0381 26.8751 38.3523 28.4553 40.3669 30.4961C42.3778 32.5294 43.9318 34.8623 45.0364 37.4985C46.1748 40.2209 46.7477 43.0668 46.7477 46.04C46.7477 49.1181 46.1748 52.0426 45.0364 54.8136C43.9318 57.506 42.3628 59.8763 40.3332 61.9321C38.3036 63.9879 35.9595 65.5756 33.3008 66.6953C30.5598 67.8486 27.6689 68.429 24.6283 68.429C21.6326 68.429 18.7755 67.8486 16.0531 66.6953C13.4207 65.5831 11.099 64.0066 9.07694 61.9658C7.06234 59.9325 5.50083 57.5884 4.39617 54.9372C3.25781 52.1961 2.68863 49.3203 2.68863 46.3096C2.68863 43.2952 3.27279 40.4043 4.44485 37.6408C5.57198 34.9784 7.16344 32.6156 9.21549 30.556C11.2713 28.4965 13.6229 26.9013 16.2778 25.7704C19.0264 24.5983 21.9022 24.0104 24.8942 24.0104ZM24.8942 27.9311C22.434 27.9311 20.0749 28.4104 17.8131 29.3765C15.6263 30.3089 13.6866 31.6232 11.994 33.3233C10.2977 35.0233 8.98332 36.9743 8.05466 39.1686C7.08855 41.4453 6.60549 43.8232 6.60549 46.3096C6.60549 48.7998 7.07731 51.1738 8.01721 53.4281C8.92341 55.6075 10.2041 57.5359 11.8629 59.2098C13.518 60.8799 15.4278 62.1718 17.5847 63.0892C19.8165 64.0328 22.1644 64.5084 24.6283 64.5084C27.1409 64.5084 29.5225 64.0328 31.7768 63.0817C33.9599 62.1643 35.8809 60.8612 37.5472 59.1761C39.2136 57.4873 40.5017 55.5363 41.4117 53.3233C42.3553 51.0278 42.8271 48.6013 42.8271 46.04C42.8271 43.5948 42.359 41.2506 41.4191 39.0114C40.5129 36.8432 39.2323 34.9222 37.5809 33.2484C35.9221 31.5746 34.0235 30.2752 31.8816 29.3577C29.6611 28.4066 27.3319 27.9311 24.8942 27.9311Z" fill="white"/>
<path d="M1.9585 1.9585V44.9654C1.9585 48.7287 2.40785 51.4136 3.39268 54.1022C6.79653 63.1529 14.9523 68.7961 24.5385 68.7961C37.3488 68.7961 47.4742 58.9402 47.4742 46.3995C47.5641 33.7652 37.3488 23.5499 24.8044 23.5499C15.9371 23.5499 8.50033 28.2981 4.55726 36.5437V1.9585H1.9585ZM24.8942 25.9689C35.9146 25.9689 44.7856 35.0197 44.7856 46.0401C44.7856 57.5061 35.9146 66.4669 24.6284 66.4669C13.5181 66.4669 4.64713 57.5061 4.64713 46.3097C4.64713 35.1095 13.7877 25.9689 24.8942 25.9689Z" fill="white"/>
</svg>
