<svg width="400" height="400" viewBox="0 0 400 400" fill="none" xmlns="http://www.w3.org/2000/svg">
<rect width="400" height="400" fill="url(#paint0_linear_2007_421)"/>
<path d="M160.038 196.08V199.495H124.404C125.022 202.992 126.711 205.842 129.467 208.048C132.29 210.324 135.421 211.463 138.858 211.463C141.195 211.463 143.434 210.908 145.584 209.8C147.669 208.763 149.418 207.291 150.826 205.381H158.196C156.477 209.246 153.9 212.286 150.467 214.503C146.962 216.772 143.431 217.903 139.877 217.903C136.252 217.903 133.182 217.349 130.665 216.241C128.089 215.144 125.846 213.642 123.94 211.732C119.776 207.688 117.694 202.723 117.694 196.829C117.694 190.998 119.776 185.996 123.94 181.82C128.051 177.709 133.024 175.649 138.858 175.649C144.509 175.649 149.452 177.641 153.687 181.626C157.918 185.681 160.038 190.5 160.038 196.08ZM153.223 193.968C152.481 190.534 150.766 187.677 148.07 185.4C145.363 183.195 142.292 182.09 138.858 182.09C133.586 182.09 129.441 184.453 126.426 189.175C125.505 190.654 124.861 192.253 124.494 193.968H153.223Z" fill="white"/>
<path d="M177.064 171.14V217.259H170.623V150.695L205.792 200.693V154.664H212.233V221.123L177.064 171.14Z" fill="white"/>
<path d="M265.632 196.08V199.495H229.998C230.616 202.992 232.305 205.842 235.061 208.048C237.885 210.324 241.015 211.463 244.453 211.463C246.789 211.463 249.029 210.908 251.178 209.8C253.264 208.763 255.012 207.291 256.42 205.381H263.79C262.071 209.246 259.495 212.286 256.061 214.503C252.556 216.772 249.025 217.903 245.471 217.903C241.846 217.903 238.776 217.349 236.259 216.241C233.683 215.144 231.44 213.642 229.534 211.732C225.37 207.688 223.288 202.723 223.288 196.829C223.288 190.998 225.37 185.996 229.534 181.82C233.646 177.709 238.619 175.649 244.453 175.649C250.103 175.649 255.046 177.641 259.281 181.626C263.513 185.681 265.632 190.5 265.632 196.08ZM258.817 193.968C258.076 190.534 256.36 187.677 253.664 185.4C250.957 183.195 247.886 182.09 244.453 182.09C239.18 182.09 235.035 184.453 232.021 189.175C231.099 190.654 230.455 192.253 230.088 193.968H258.817Z" fill="white"/>
<path d="M300.063 217.259L289.938 201.516L279.812 217.259H271.619L285.789 196.918L271.619 176.757H279.812L289.938 192.304L300.063 176.757H308.256L294.072 197.008L308.256 217.259H300.063Z" fill="white"/>
<path d="M312.398 182.734V176.757H322.524V161.015H328.965V176.757H339V182.734H328.965V217.259H322.524V182.734H312.398Z" fill="white"/>
<path d="M232.175 241.749C227.592 240.693 225.3 238.731 225.3 235.863C225.3 233.758 226.038 232.174 227.517 231.114C228.992 230.077 230.722 229.557 232.7 229.557C237.081 229.557 239.679 231.186 240.488 234.44H237.987C237.545 232.504 235.785 231.534 232.7 231.534C230.543 231.534 229.034 232.174 228.176 233.451C227.846 233.942 227.682 234.552 227.682 235.278C227.682 236.656 228.431 237.72 229.928 238.469C230.636 238.851 232.134 239.334 234.422 239.922C236.706 240.521 238.369 241.187 239.41 241.914C240.837 242.925 241.552 244.34 241.552 246.168C241.552 248.437 240.657 250.152 238.871 251.32C237.373 252.29 235.523 252.773 233.329 252.773C228.356 252.773 225.472 250.882 224.686 247.096H227.412C227.832 249.474 229.801 250.661 233.329 250.661C235.834 250.661 237.582 249.969 238.571 248.579C238.968 248.033 239.17 247.284 239.17 246.332C239.17 245.404 238.803 244.647 238.077 244.056C237.047 243.217 235.081 242.449 232.175 241.749Z" fill="white"/>
<path d="M243.064 231.968V229.826H256.275V231.968H250.823V252.279H248.517V231.968H243.064Z" fill="white"/>
<path d="M275.653 244.909C275.653 247.336 274.859 249.253 273.271 250.661C271.773 251.979 269.781 252.638 267.295 252.638C264.786 252.638 262.786 251.979 261.288 250.661C259.701 249.253 258.907 247.336 258.907 244.909V229.886H261.228V245.239C261.228 246.939 261.843 248.235 263.071 249.133C264.127 249.935 265.535 250.332 267.295 250.332C270.051 250.332 271.897 249.403 272.837 247.546C273.166 246.916 273.331 246.149 273.331 245.239V229.886H275.653V244.909Z" fill="white"/>
<path d="M297.533 241.12C297.533 242.749 297.237 244.243 296.649 245.598C296.028 246.988 295.2 248.175 294.163 249.163C293.133 250.163 291.916 250.938 290.508 251.485C289.1 252.054 287.591 252.339 285.985 252.339H280.098V229.886H285.985C287.591 229.886 289.1 230.163 290.508 230.71C291.916 231.29 293.133 232.073 294.163 233.061C295.2 234.05 296.028 235.23 296.649 236.596C297.237 237.986 297.533 239.495 297.533 241.12ZM295.286 241.12C295.286 238.566 294.38 236.428 292.575 234.709C290.815 233.043 288.64 232.208 286.045 232.208H282.42V250.032H286.045C288.64 250.032 290.815 249.193 292.575 247.516C294.38 245.801 295.286 243.666 295.286 241.12Z" fill="white"/>
<path d="M303.81 252.339H301.488V229.886H303.81V252.339Z" fill="white"/>
<path d="M328.522 241.045C328.522 238.521 327.624 236.353 325.826 234.544C324.018 232.739 321.834 231.833 319.281 231.833C316.753 231.833 314.585 232.739 312.78 234.544C310.971 236.353 310.069 238.521 310.069 241.045C310.069 243.603 310.971 245.786 312.78 247.591C314.585 249.388 316.753 250.287 319.281 250.287C321.834 250.287 324.018 249.388 325.826 247.591C327.624 245.786 328.522 243.603 328.522 241.045ZM330.844 241.045C330.844 242.633 330.544 244.131 329.945 245.539C329.335 246.947 328.511 248.171 327.474 249.208C326.414 250.257 325.182 251.081 323.774 251.68C322.366 252.301 320.868 252.608 319.281 252.608C317.7 252.608 316.218 252.301 314.832 251.68C313.424 251.081 312.2 250.257 311.162 249.208C310.103 248.171 309.279 246.947 308.691 245.539C308.069 244.131 307.762 242.633 307.762 241.045C307.762 239.469 308.069 237.971 308.691 236.552C309.279 235.144 310.103 233.927 311.162 232.897C312.2 231.86 313.424 231.036 314.832 230.425C316.218 229.826 317.7 229.527 319.281 229.527C320.868 229.527 322.366 229.826 323.774 230.425C325.182 231.036 326.414 231.86 327.474 232.897C328.511 233.927 329.335 235.144 329.945 236.552C330.544 237.971 330.844 239.469 330.844 241.045Z" fill="white"/>
<path d="M64.9206 148.958V191.965C64.9206 193.722 65.0255 195.276 65.2426 196.627C65.4486 197.919 65.7781 199.189 66.2312 200.428C67.7852 204.558 70.2979 207.827 73.7654 210.231C77.2254 212.636 81.1498 213.838 85.5384 213.838C88.433 213.838 91.1816 213.306 93.7878 212.246C96.3004 211.22 98.521 209.771 100.442 207.899C102.359 206.026 103.842 203.866 104.891 201.42C105.973 198.885 106.516 196.212 106.516 193.399C106.534 190.554 106.003 187.839 104.924 185.255C103.883 182.757 102.404 180.548 100.487 178.619C98.5734 176.695 96.3716 175.204 93.8852 174.148C91.3164 173.055 88.6203 172.512 85.8043 172.512C81.7489 172.512 78.1129 173.542 74.8925 175.605C71.6572 177.68 69.1333 180.608 67.3246 184.386L63.5988 183.544V148.958H65.5572V150.917H62.9584V148.958H64.9206ZM61 147H67.5156V183.544H65.5572L63.7897 182.697C65.9204 178.245 68.9161 174.781 72.7768 172.306C76.6412 169.827 80.985 168.591 85.8043 168.591C89.152 168.591 92.3574 169.239 95.4167 170.539C98.375 171.797 100.992 173.568 103.265 175.856C105.546 178.144 107.302 180.776 108.542 183.742C109.826 186.824 110.459 190.041 110.433 193.399C110.433 196.747 109.789 199.934 108.493 202.959C107.242 205.888 105.471 208.468 103.179 210.703C100.891 212.935 98.2551 214.658 95.2669 215.875C92.1851 217.129 88.9423 217.758 85.5384 217.758C80.3297 217.758 75.6602 216.324 71.5298 213.452C67.3921 210.583 64.4001 206.689 62.554 201.776C62.011 200.297 61.6179 198.788 61.3707 197.245C61.1236 195.687 61 193.927 61 191.965V147ZM85.8942 171.01C88.8674 171.01 91.7096 171.591 94.4244 172.755C97.0381 173.875 99.3523 175.455 101.367 177.496C103.378 179.529 104.932 181.862 106.036 184.499C107.175 187.221 107.748 190.067 107.748 193.04C107.748 196.118 107.175 199.043 106.036 201.814C104.932 204.506 103.363 206.876 101.333 208.932C99.3036 210.988 96.9595 212.576 94.3008 213.695C91.5598 214.849 88.6689 215.429 85.6283 215.429C82.6326 215.429 79.7755 214.849 77.0531 213.695C74.4207 212.583 72.099 211.007 70.0769 208.966C68.0623 206.932 66.5008 204.588 65.3962 201.937C64.2578 199.196 63.6886 196.32 63.6886 193.31C63.6886 190.295 64.2728 187.404 65.4449 184.641C66.572 181.978 68.1634 179.616 70.2155 177.556C72.2713 175.496 74.6229 173.901 77.2778 172.77C80.0264 171.598 82.9022 171.01 85.8942 171.01ZM85.8942 174.931C83.434 174.931 81.0749 175.41 78.8131 176.376C76.6263 177.309 74.6866 178.623 72.994 180.323C71.2977 182.023 69.9833 183.974 69.0547 186.169C68.0885 188.445 67.6055 190.823 67.6055 193.31C67.6055 195.8 68.0773 198.174 69.0172 200.428C69.9234 202.607 71.2041 204.536 72.8629 206.21C74.518 207.88 76.4278 209.172 78.5847 210.089C80.8165 211.033 83.1644 211.508 85.6283 211.508C88.1409 211.508 90.5225 211.033 92.7768 210.082C94.9599 209.164 96.8809 207.861 98.5472 206.176C100.214 204.487 101.502 202.536 102.412 200.323C103.355 198.028 103.827 195.601 103.827 193.04C103.827 190.595 103.359 188.251 102.419 186.011C101.513 183.843 100.232 181.922 98.5809 180.248C96.9221 178.575 95.0235 177.275 92.8816 176.358C90.6611 175.407 88.3319 174.931 85.8942 174.931Z" fill="white"/>
<path d="M62.9584 148.958L62.9585 191.965C62.9585 195.729 63.4078 198.414 64.3927 201.102C67.7965 210.153 75.9523 215.796 85.5385 215.796C98.3488 215.796 108.474 205.94 108.474 193.4C108.564 180.765 98.3488 170.55 85.8044 170.55C76.9371 170.55 69.5003 175.298 65.5572 183.544V148.958H62.9584ZM85.8942 172.969C96.9146 172.969 105.786 182.02 105.786 193.04C105.786 204.506 96.9146 213.467 85.6284 213.467C74.5181 213.467 65.6471 204.506 65.6471 193.31C65.6471 182.11 74.7877 172.969 85.8942 172.969Z" fill="white"/>
<defs>
<linearGradient id="paint0_linear_2007_421" x1="0" y1="0" x2="356.5" y2="384.5" gradientUnits="userSpaceOnUse">
<stop stop-color="#0036E6"/>
<stop offset="1" stop-color="#3092FB"/>
</linearGradient>
</defs>
</svg>
