<svg width="400" height="400" viewBox="0 0 400 400" fill="none" xmlns="http://www.w3.org/2000/svg">
<rect width="400" height="400" rx="100" fill="url(#paint0_linear_2016_368)"/>
<path d="M137.659 100.824V228.713C137.659 233.936 137.97 238.557 138.616 242.577C139.229 246.418 140.209 250.193 141.556 253.879C146.177 266.161 153.649 275.883 163.96 283.031C174.249 290.18 185.919 293.755 198.97 293.755C207.578 293.755 215.751 292.174 223.501 289.022C230.973 285.971 237.576 281.662 243.289 276.094C248.99 270.526 253.399 264.101 256.517 256.83C259.735 249.291 261.35 241.341 261.35 232.978C261.406 224.515 259.825 216.442 256.618 208.759C253.522 201.331 249.123 194.762 243.422 189.027C237.732 183.303 231.184 178.871 223.791 175.731C216.152 172.48 208.134 170.865 199.761 170.865C187.701 170.865 176.889 173.927 167.312 180.063C157.691 186.232 150.186 194.94 144.808 206.175L133.728 203.67V100.824H139.552V106.648H131.824V100.824H137.659ZM126 95H145.375V203.67H139.552L134.296 201.153C140.632 187.913 149.54 177.613 161.021 170.253C172.512 162.881 185.429 159.206 199.761 159.206C209.716 159.206 219.247 161.133 228.345 164.997C237.142 168.738 244.925 174.005 251.685 180.809C258.466 187.613 263.689 195.441 267.374 204.26C271.194 213.424 273.076 222.99 272.998 232.978C272.998 242.933 271.082 252.409 267.23 261.407C263.51 270.114 258.243 277.787 251.429 284.434C244.625 291.071 236.786 296.193 227.9 299.812C218.735 303.543 209.092 305.413 198.97 305.413C183.481 305.413 169.595 301.149 157.313 292.608C145.008 284.078 136.111 272.497 130.621 257.888C129.007 253.489 127.837 249.002 127.102 244.414C126.367 239.782 126 234.548 126 228.713V95ZM200.028 166.4C208.869 166.4 217.321 168.126 225.394 171.589C233.167 174.918 240.048 179.617 246.039 185.686C252.019 191.733 256.64 198.67 259.925 206.509C263.31 214.605 265.014 223.068 265.014 231.909C265.014 241.062 263.31 249.759 259.925 257.999C256.64 266.005 251.974 273.054 245.939 279.167C239.903 285.281 232.933 290.002 225.027 293.332C216.876 296.761 208.279 298.487 199.237 298.487C190.329 298.487 181.833 296.761 173.737 293.332C165.909 290.024 159.005 285.336 152.992 279.268C147.001 273.221 142.358 266.25 139.073 258.367C135.688 250.216 133.995 241.664 133.995 232.711C133.995 223.747 135.732 215.15 139.218 206.932C142.569 199.015 147.302 191.989 153.404 185.864C159.517 179.74 166.51 174.996 174.405 171.633C182.579 168.148 191.131 166.4 200.028 166.4ZM200.028 178.059C192.712 178.059 185.697 179.484 178.971 182.357C172.468 185.129 166.7 189.038 161.667 194.093C156.622 199.149 152.714 204.95 149.952 211.476C147.079 218.246 145.643 225.317 145.643 232.711C145.643 240.116 147.046 247.176 149.841 253.879C152.536 260.36 156.344 266.095 161.277 271.072C166.199 276.038 171.878 279.88 178.292 282.608C184.928 285.414 191.91 286.829 199.237 286.829C206.709 286.829 213.791 285.414 220.495 282.586C226.986 279.858 232.699 275.983 237.654 270.972C242.609 265.95 246.44 260.148 249.146 253.567C251.952 246.741 253.355 239.526 253.355 231.909C253.355 224.638 251.963 217.667 249.168 211.008C246.473 204.561 242.665 198.848 237.754 193.871C232.821 188.893 227.176 185.029 220.806 182.301C214.203 179.473 207.277 178.059 200.028 178.059Z" fill="white"/>
<path d="M131.824 100.824V228.714C131.824 239.905 133.16 247.889 136.089 255.884C146.211 282.798 170.464 299.579 198.97 299.579C237.064 299.579 267.174 270.271 267.174 232.978C267.442 195.408 237.064 165.031 199.761 165.031C173.392 165.031 151.278 179.15 139.552 203.67V100.824H131.824ZM200.028 172.224C232.8 172.224 259.179 199.138 259.179 231.91C259.179 266.006 232.8 292.653 199.238 292.653C166.199 292.653 139.819 266.006 139.819 232.711C139.819 199.405 167.001 172.224 200.028 172.224Z" fill="white"/>
<defs>
<linearGradient id="paint0_linear_2016_368" x1="0" y1="0" x2="356.5" y2="384.5" gradientUnits="userSpaceOnUse">
<stop stop-color="#0036E6"/>
<stop offset="1" stop-color="#3092FB"/>
</linearGradient>
</defs>
</svg>
